<svg version="1.1" viewBox="0.0 0.0 495.7690288713911 247.88451443569554" fill="none" stroke="none" stroke-linecap="square" stroke-miterlimit="10" xmlns:xlink="http://www.w3.org/1999/xlink" xmlns="http://www.w3.org/2000/svg"><clipPath id="p.0"><path d="m0 0l495.76904 0l0 247.88452l-495.76904 0l0 -247.88452z" clip-rule="nonzero"/></clipPath><g clip-path="url(#p.0)"><path fill="#000000" fill-opacity="0.0" d="m0 0l495.76904 0l0 247.88452l-495.76904 0z" fill-rule="evenodd"/><path fill="#ce0e2d" d="m0 0l496.7244 0l0 247.87401l-496.7244 0z" fill-rule="evenodd"/><path fill="#000000" fill-opacity="0.0" d="m28.909449 94.850395l407.7795 0l0 58.173225l-407.7795 0z" fill-rule="evenodd"/><path fill="#ffffff" d="m56.34695 123.0079l-2.09375 -0.28125q0 0.59375 -0.203125 1.140625q-0.203125 0.546875 -0.546875 0.953125q-0.359375 0.421875 -0.84375 0.671875q-0.46875 0.25 -1.015625 0.25q-0.46875 0.015625 -0.90625 -0.09375q-0.4375 -0.125 -0.859375 -0.359375q-0.359375 -0.1875 -0.734375 -0.453125q-0.375 -0.28125 -0.78125 -0.625q-0.609375 -0.5 -1.203125 -0.90625q-0.578125 -0.40625 -1.1875 -0.6875q-0.609375 -0.28125 -1.265625 -0.421875q-0.640625 -0.15625 -1.359375 -0.15625q-1.046875 0 -1.90625 0.421875q-0.859375 0.40625 -1.46875 1.109375q-0.625 0.703125 -0.96875 1.640625q-0.34375 0.9375 -0.34375 1.96875l2.09375 0.265625q0 -0.59375 0.203125 -1.109375q0.203125 -0.53125 0.546875 -0.921875q0.34375 -0.375 0.8125 -0.59375q0.484375 -0.234375 1.03125 -0.234375q0.359375 0 0.6875 0.0625q0.34375 0.0625 0.671875 0.203125q0.46875 0.1875 0.9375 0.515625q0.484375 0.3125 1.0 0.734375q0.625 0.53125 1.203125 0.9375q0.59375 0.40625 1.203125 0.6875q0.59375 0.28124237 1.21875 0.42186737q0.640625 0.140625 1.375 0.140625q1.046875 0 1.90625 -0.43749237q0.859375 -0.4375 1.484375 -1.171875q0.625 -0.734375 0.96875 -1.6875q0.34375 -0.953125 0.34375 -1.984375zm7.296875 13.515617l9.484371 -24.703117l-2.578125 0l-9.499996 24.703117l2.59375 0z" fill-rule="nonzero"/><path fill="#ffffff" d="m86.48757 113.52352l-4.34375 0l0 4.140625l-3.859375 0l0 3.203125l3.859375 0l0 7.6874924q0 1.671875 0.4375 2.875q0.4375 1.1875 1.25 1.953125q0.796875 0.78125 1.921875 1.15625q1.140625 0.359375 2.53125 0.359375q0.71875 0 1.453125 -0.078125q0.75 -0.0625 1.4375 -0.1875q0.6875 -0.125 1.296875 -0.3125q0.609375 -0.203125 1.0625 -0.46875l-0.421875 -2.984375q-0.296875 0.078125 -0.71875 0.15625q-0.40625 0.078125 -0.875 0.140625q-0.484375 0.078125 -1.015625 0.125q-0.515625 0.046875 -1.015625 0.046875q-0.6875 0 -1.25 -0.15625q-0.546875 -0.15625 -0.9375 -0.53125q-0.390625 -0.359375 -0.609375 -0.96875q-0.203125 -0.625 -0.203125 -1.546875l0 -7.2656174l6.3125 0l0 -3.203125l-6.3125 0l0 -4.140625zm21.796875 21.046867l4.40625 0l0 -0.265625q-0.328125 -0.640625 -0.5 -1.53125q-0.171875 -0.890625 -0.171875 -2.25l0 -7.2499924q0 -1.46875 -0.546875 -2.578125q-0.546875 -1.125 -1.515625 -1.859375q-0.96875 -0.734375 -2.296875 -1.109375q-1.3125 -0.375 -2.84375 -0.375q-1.703125 0 -3.03125 0.4375q-1.3125 0.421875 -2.21875 1.15625q-0.921875 0.734375 -1.40625 1.703125q-0.46875 0.96875 -0.46875 2.046875l4.34375 0q0 -0.453125 0.125 -0.828125q0.140625 -0.375 0.421875 -0.640625q0.3125 -0.296875 0.8125 -0.453125q0.5 -0.171875 1.1875 -0.171875q0.78125 0 1.359375 0.203125q0.59375 0.1875 0.984375 0.546875q0.375 0.34375 0.5625 0.828125q0.1875 0.46875 0.1875 1.0625l0 1.0l-2.421875 0q-1.875 0 -3.328125 0.34375q-1.4375 0.328125 -2.421875 0.96875q-1.09375 0.703125 -1.640625 1.796875q-0.546875 1.0781174 -0.546875 2.4843674q0 1.09375 0.4375 2.03125q0.4375 0.921875 1.21875 1.59375q0.78125 0.671875 1.859375 1.046875q1.09375 0.375 2.390625 0.375q0.796875 0 1.484375 -0.15625q0.6875 -0.140625 1.265625 -0.40625q0.5625 -0.25 1.03125 -0.59375q0.46875 -0.34375 0.828125 -0.734375q0.078125 0.453125 0.1875 0.859375q0.109375 0.40625 0.265625 0.71875zm-4.140625 -3.046875q-0.609375 0 -1.078125 -0.140625q-0.453125 -0.15625 -0.765625 -0.40625q-0.3125 -0.265625 -0.484375 -0.640625q-0.15625 -0.390625 -0.15625 -0.84375q0 -0.578125 0.21875 -1.0625q0.21875 -0.49999237 0.671875 -0.8593674q0.453125 -0.34375 1.171875 -0.53125q0.71875 -0.203125 1.734375 -0.203125l2.21875 0l0 2.9062424q-0.1875 0.328125 -0.515625 0.65625q-0.328125 0.3125 -0.78125 0.5625q-0.453125 0.25 -1.015625 0.40625q-0.5625 0.15625 -1.21875 0.15625zm15.453125 9.875q1.3125 0 2.265625 -0.4375q0.96875 -0.4375 1.640625 -1.078125q0.671875 -0.640625 1.109375 -1.390625q0.453125 -0.75 0.734375 -1.390625l8.578133 -19.437492l-4.796875 0l-3.8593826 9.9375l-0.640625 1.6874924l-0.46875 -1.7187424l-3.875 -9.90625l-4.75 0l7.15625 16.187492l-1.0 1.859375q-0.1875 0.34375 -0.328125 0.53125q-0.125 0.1875 -0.40625 0.5625q-0.28125 0.375 -0.6875 0.6875q-0.390625 0.328125 -0.90625 0.328125q-0.25 0 -0.671875 -0.03125q-0.40625 -0.015625 -0.671875 -0.015625l-0.53125 3.3125q0.5625 0.15625 1.015625 0.234375q0.46875 0.078125 1.09375 0.078125zm17.437508 -30.828117l0 3.546875l5.0625 0l0 16.921867l-5.0625 0l0 3.53125l14.296875 0l0 -3.53125l-4.84375 0l0 -20.468742l-9.453125 0zm17.703125 15.390625l0 0.328125q0 1.8593674 0.53125 3.4374924q0.53125 1.5625 1.5625 2.71875q1.015625 1.15625 2.5 1.8125q1.5 0.640625 3.40625 0.640625q1.890625 0 3.375 -0.640625q1.484375 -0.65625 2.5 -1.8125q1.015625 -1.15625 1.546875 -2.71875q0.53125 -1.578125 0.53125 -3.4374924l0 -0.328125q0 -1.84375 -0.53125 -3.40625q-0.53125 -1.578125 -1.546875 -2.734375q-1.03125 -1.15625 -2.515625 -1.8125q-1.484375 -0.65625 -3.390625 -0.65625q-1.90625 0 -3.390625 0.65625q-1.46875 0.65625 -2.484375 1.8125q-1.03125 1.15625 -1.5625 2.734375q-0.53125 1.5625 -0.53125 3.40625zm4.34375 0.328125l0 -0.328125q0 -1.03125 0.203125 -1.953125q0.203125 -0.921875 0.640625 -1.625q0.4375 -0.703125 1.125 -1.109375q0.6875 -0.40625 1.65625 -0.40625q0.984375 0 1.671875 0.40625q0.6875 0.40625 1.125 1.109375q0.421875 0.703125 0.625 1.625q0.203125 0.921875 0.203125 1.953125l0 0.328125q0 1.0625 -0.203125 1.9999924q-0.203125 0.921875 -0.625 1.609375q-0.4375 0.703125 -1.125 1.109375q-0.6875 0.40625 -1.640625 0.40625q-0.984375 0 -1.6875 -0.40625q-0.6875 -0.40625 -1.125 -1.109375q-0.4375 -0.6875 -0.640625 -1.609375q-0.203125 -0.9374924 -0.203125 -1.9999924zm27.59375 -8.9375q-1.703125 0 -3.140625 0.828125q-1.4375 0.8125 -2.46875 2.25l-0.03125 -0.375l-0.171875 -2.390625l-4.046875 0l0 16.906242l4.34375 0l0 -10.156242q0.296875 -0.71875 0.75 -1.25q0.453125 -0.53125 1.09375 -0.875q0.53125 -0.296875 1.203125 -0.4375q0.6875 -0.15625 1.53125 -0.15625q0.8125 0 1.703125 0.109375q0.90625 0.09375 1.765625 0.296875l0.640625 -4.328125q-0.515625 -0.15625 -1.359375 -0.28125q-0.828125 -0.140625 -1.8125 -0.140625zm9.765625 0.3125l-3.734375 0l0 16.906242l3.953125 0l0 -12.656242q0.078125 -0.203125 0.171875 -0.375q0.09375 -0.171875 0.21875 -0.296875q0.171875 -0.171875 0.390625 -0.265625q0.21875 -0.09375 0.5 -0.09375q0.25 0 0.46875 0.078125q0.21875 0.0625 0.390625 0.234375q0.15625 0.171875 0.25 0.484375q0.09375 0.3125 0.09375 0.796875l0 12.093742l3.828125 0l0 -12.468742q0 -0.1875 0 -0.296875q0 -0.109375 0 -0.140625q0.078125 -0.171875 0.1875 -0.296875q0.109375 -0.140625 0.25 -0.25q0.171875 -0.109375 0.359375 -0.171875q0.203125 -0.0625 0.453125 -0.0625q0.234375 0 0.453125 0.078125q0.234375 0.0625 0.40625 0.234375q0.171875 0.1875 0.265625 0.5q0.109375 0.3125 0.109375 0.796875l0 12.078117l3.953125 0l0 -12.062492q0 -1.40625 -0.28125 -2.375q-0.265625 -0.984375 -0.75 -1.609375q-0.5 -0.609375 -1.171875 -0.890625q-0.65625 -0.28125 -1.421875 -0.28125q-0.609375 0 -1.125 0.15625q-0.515625 0.15625 -0.921875 0.4375q-0.328125 0.21875 -0.609375 0.53125q-0.265625 0.296875 -0.484375 0.671875q-0.140625 -0.390625 -0.34375 -0.6875q-0.1875 -0.3125 -0.453125 -0.53125q-0.34375 -0.296875 -0.8125 -0.4375q-0.46875 -0.140625 -1.0625 -0.140625q-1.21875 0 -2.078125 0.640625q-0.84375 0.625 -1.328125 1.71875l-0.125 -2.046875zm27.0625 16.906242l4.40625 0l0 -0.265625q-0.328125 -0.640625 -0.5 -1.53125q-0.171875 -0.890625 -0.171875 -2.25l0 -7.2499924q0 -1.46875 -0.546875 -2.578125q-0.546875 -1.125 -1.515625 -1.859375q-0.96875 -0.734375 -2.296875 -1.109375q-1.3125 -0.375 -2.84375 -0.375q-1.703125 0 -3.03125 0.4375q-1.3125 0.421875 -2.21875 1.15625q-0.921875 0.734375 -1.40625 1.703125q-0.46875 0.96875 -0.46875 2.046875l4.34375 0q0 -0.453125 0.125 -0.828125q0.140625 -0.375 0.421875 -0.640625q0.3125 -0.296875 0.8125 -0.453125q0.5 -0.171875 1.1875 -0.171875q0.78125 0 1.359375 0.203125q0.59375 0.1875 0.984375 0.546875q0.375 0.34375 0.5625 0.828125q0.1875 0.46875 0.1875 1.0625l0 1.0l-2.421875 0q-1.875 0 -3.328125 0.34375q-1.4375 0.328125 -2.421875 0.96875q-1.09375 0.703125 -1.640625 1.796875q-0.546875 1.0781174 -0.546875 2.4843674q0 1.09375 0.4375 2.03125q0.4375 0.921875 1.21875 1.59375q0.78125 0.671875 1.859375 1.046875q1.09375 0.375 2.390625 0.375q0.796875 0 1.484375 -0.15625q0.6875 -0.140625 1.265625 -0.40625q0.5625 -0.25 1.03125 -0.59375q0.46875 -0.34375 0.828125 -0.734375q0.078125 0.453125 0.1875 0.859375q0.109375 0.40625 0.265625 0.71875zm-4.140625 -3.046875q-0.609375 0 -1.078125 -0.140625q-0.453125 -0.15625 -0.765625 -0.40625q-0.3125 -0.265625 -0.484375 -0.640625q-0.15625 -0.390625 -0.15625 -0.84375q0 -0.578125 0.21875 -1.0625q0.21875 -0.49999237 0.671875 -0.8593674q0.453125 -0.34375 1.171875 -0.53125q0.71875 -0.203125 1.734375 -0.203125l2.21875 0l0 2.9062424q-0.1875 0.328125 -0.515625 0.65625q-0.328125 0.3125 -0.78125 0.5625q-0.453125 0.25 -1.015625 0.40625q-0.5625 0.15625 -1.21875 0.15625zm12.328125 -5.5312424l0 0.328125q0 1.8437424 0.453125 3.4218674q0.453125 1.5625 1.3125 2.703125q0.84375 1.140625 2.0625 1.796875q1.234375 0.640625 2.78125 0.640625q1.421875 0 2.5 -0.546875q1.078125 -0.546875 1.875 -1.53125l0.21875 1.765625l3.921875 0l0 -23.999992l-4.359375 0l0 8.609375q-0.78125 -0.875 -1.796875 -1.34375q-1.0 -0.484375 -2.328125 -0.484375q-1.578125 0 -2.8125 0.625q-1.21875 0.625 -2.078125 1.765625q-0.859375 1.140625 -1.3125 2.734375q-0.4375 1.59375 -0.4375 3.515625zm4.34375 0.328125l0 -0.328125q0 -1.0625 0.1875 -1.984375q0.1875 -0.9375 0.59375 -1.640625q0.40625 -0.6875 1.046875 -1.078125q0.65625 -0.40625 1.578125 -0.40625q1.109375 0 1.84375 0.484375q0.734375 0.46875 1.171875 1.328125l0 6.8437424q-0.4375 0.84375 -1.1875 1.328125q-0.734375 0.484375 -1.859375 0.484375q-0.921875 0 -1.5625 -0.390625q-0.640625 -0.390625 -1.046875 -1.078125q-0.40625 -0.671875 -0.59375 -1.578125q-0.171875 -0.9218674 -0.171875 -1.9843674zm23.515625 8.562492q2.453125 0 4.25 -0.953125q1.796875 -0.953125 2.625 -2.125l-2.171875 -2.34375q-0.75 0.96875 -1.953125 1.453125q-1.203125 0.484375 -2.484375 0.484375q-0.90625 0 -1.671875 -0.28125q-0.765625 -0.28125 -1.359375 -0.796875q-0.578125 -0.5 -0.921875 -1.109375q-0.34375 -0.625 -0.5625 -1.6406174l0 -0.046875l11.46875 0l0 -1.84375q0 -1.859375 -0.515625 -3.390625q-0.515625 -1.546875 -1.5 -2.640625q-1.0 -1.09375 -2.4375 -1.6875q-1.421875 -0.609375 -3.25 -0.609375q-1.765625 0 -3.265625 0.640625q-1.5 0.640625 -2.59375 1.796875q-1.09375 1.15625 -1.703125 2.765625q-0.609375 1.59375 -0.609375 3.53125l0 0.625q0 1.7031174 0.609375 3.2031174q0.625 1.484375 1.765625 2.578125q1.140625 1.109375 2.734375 1.75q1.59375 0.640625 3.546875 0.640625zm-0.515625 -14.015617q0.828125 0 1.453125 0.265625q0.640625 0.25 1.078125 0.6875q0.4375 0.453125 0.6875 1.0625q0.25 0.609375 0.25 1.296875l0 0.34375l-7.125 0q0.15625 -0.828125 0.46875 -1.5q0.3125 -0.671875 0.78125 -1.15625q0.453125 -0.484375 1.0625 -0.734375q0.609375 -0.265625 1.34375 -0.265625z" fill-rule="nonzero"/></g></svg>